<?xml version="1.0" encoding="utf-8"?>
<svg xmlns="http://www.w3.org/2000/svg" viewBox="0 0 500 500">
  <path d="M 214.676 424.42 C 178.559 475.629 108.049 488.496 57.086 452.869 C 6.372 417.247 -5.505 346.243 30.122 294.538 C 51.645 263.615 84.795 247.04 118.688 245.555 L 119.927 280.931 C 97.412 282.662 75.643 294.288 61.539 314.575 C 36.8 350.2 44.469 398.196 78.361 422.191 C 112.504 445.941 160.248 436.787 184.987 401.409 C 192.659 390.279 197.111 378.155 198.845 365.787 L 198.845 340.799 L 336.889 339.809 L 338.62 337.09 C 351.732 314.329 380.183 306.412 402.449 319.279 C 424.713 332.14 432.383 360.839 419.271 383.599 C 406.16 406.114 377.46 414.027 355.195 401.165 C 345.052 395.475 337.878 386.319 334.665 375.93 L 233.972 376.424 C 231.251 393.001 224.82 409.08 214.676 424.42 M 394.78 247.78 C 457.368 255.449 501.901 311.608 494.231 373.207 C 486.562 435.058 429.662 478.848 367.072 471.176 C 330.21 466.725 299.78 445.695 282.216 416.503 L 312.893 398.691 C 325.017 417.742 345.547 431.347 370.287 434.563 C 413.583 439.757 451.927 410.317 457.123 369.003 C 462.316 327.688 431.643 289.836 388.844 284.643 C 375.481 283.158 362.617 284.89 350.99 289.095 L 329.96 299.982 L 266.135 181.973 L 260.691 181.973 C 234.467 180.983 214.181 159.46 214.926 133.733 C 215.666 108.004 237.93 87.965 263.908 88.953 C 289.885 90.438 310.419 111.465 309.674 137.195 C 309.18 148.082 304.975 157.975 298.298 165.647 L 345.301 252.482 C 360.639 247.534 377.46 245.8 394.78 247.78 M 160.003 180.489 C 135.263 122.352 161.487 55.802 218.636 31.557 C 276.032 7.314 342.332 34.777 367.072 92.913 C 381.668 126.806 378.699 163.913 362.124 193.601 L 331.445 175.789 C 341.838 155.75 343.569 131.259 333.675 108.249 C 316.85 68.668 272.074 49.617 233.727 65.699 C 195.13 82.025 177.814 127.546 194.639 167.131 C 201.564 183.458 213.191 196.075 227.294 204.487 L 236.942 209.682 L 160.993 333.13 C 161.733 334.369 162.724 335.854 163.467 337.831 C 175.589 360.345 167.176 388.794 144.417 400.915 C 121.905 413.038 93.454 404.133 81.085 380.879 C 68.963 357.869 77.372 329.42 100.133 317.299 C 109.784 312.103 120.421 310.867 130.563 313.09 L 187.711 219.825 C 176.084 209.188 166.188 195.827 160.003 180.489 Z" style="stroke-width: 1; fill: rgb(0, 121, 208);"/>
</svg>